# xmcd
#
# Track frame offsets:
#	150
#	66580
#	145320
#	194025
#
# Disc length: 3468 seconds
#
# Revision: 1
# Processed by: cddbd v1.5.1PL0 Copyright (c) Steve Scherf et al.
# Submitted via: CDex 1.50Beta5
#
DISCID=430d8a04
DTITLE=シカゴ交響楽団 - バレエ音楽「春の祭典」
DYEAR=1900
DGENRE=Classical
TTITLE0=春の祭典 第1部:大地礼賛
TTITLE1=春の祭典 第2部:いけにえ
TTITLE2=牧神の午後への前奏曲
TTITLE3=ボレロ
EXTD=
EXTT0=
EXTT1=
EXTT2=
EXTT3=
PLAYORDER=
